<?xml version="1.0" encoding="UTF-8"?> <svg xmlns="http://www.w3.org/2000/svg" width="1040" height="237" viewBox="0 0 1040 237" fill="none"><g opacity="0.7"><path opacity="0.9" d="M1040 68.3577C1040 65.1281 1038.33 62.0057 1035.67 60.163C731.825 -150.938 460.426 283.245 14.989 63.2395C8.2538 59.913 0 64.6177 0 72.1296V227.006C0 232.529 4.47715 237.006 10 237.006H1030C1035.52 237.006 1040 232.529 1040 227.006V68.3577Z" fill="url(#paint0_linear_2013_7021)"></path><path opacity="0.4" d="M0 81.3946C0 76.0858 4.34524 71.6896 9.64704 71.4163C509.104 45.6749 606.789 182.288 1027.07 68.7541C1033.46 67.0293 1040 71.7557 1040 78.3696V215.82C1040 221.343 1035.52 225.82 1030 225.82H9.99998C4.47713 225.82 0 221.343 0 215.82V81.3946Z" fill="url(#paint1_linear_2013_7021)"></path><path d="M1040 105.381C1040 102.016 1038.21 98.8066 1035.38 96.9856C714.506 -109.494 437.394 194.873 12.5725 97.0107C6.2424 95.5525 0 100.287 0 106.783V227.007C0 232.53 4.47715 237.007 10 237.007H1030C1035.52 237.007 1040 232.53 1040 227.007V105.381Z" fill="url(#paint2_linear_2013_7021)"></path></g><defs><linearGradient id="paint0_linear_2013_7021" x1="1040" y1="142.5" x2="-41.7308" y2="491.797" gradientUnits="userSpaceOnUse"><stop stop-color="white" stop-opacity="0.3"></stop><stop offset="1" stop-color="white" stop-opacity="0"></stop></linearGradient><linearGradient id="paint1_linear_2013_7021" x1="371.638" y1="-91.9758" x2="581.032" y2="459.306" gradientUnits="userSpaceOnUse"><stop stop-color="white" stop-opacity="0.3"></stop><stop offset="1" stop-color="white" stop-opacity="0"></stop></linearGradient><linearGradient id="paint2_linear_2013_7021" x1="512.5" y1="55.0965" x2="519.78" y2="331.954" gradientUnits="userSpaceOnUse"><stop stop-color="white" stop-opacity="0.3"></stop><stop offset="0.601261" stop-color="white" stop-opacity="0"></stop></linearGradient></defs></svg> 