<?xml version="1.0" encoding="UTF-8"?> <svg xmlns="http://www.w3.org/2000/svg" width="11" height="14" viewBox="0 0 11 14" fill="none"><path fill-rule="evenodd" clip-rule="evenodd" d="M6.39143 0.0272238C6.48985 0.061165 6.57523 0.124985 6.63564 0.209779C6.69606 0.294572 6.72849 0.39611 6.72843 0.500224V6.00022H9.72843C9.82224 6.00024 9.91415 6.02665 9.99367 6.07643C10.0732 6.12621 10.1371 6.19736 10.1781 6.28175C10.2191 6.36613 10.2355 6.46034 10.2255 6.55362C10.2155 6.64689 10.1794 6.73547 10.1214 6.80922L4.62143 13.8092C4.55716 13.8909 4.46903 13.9506 4.36929 13.9799C4.26955 14.0091 4.16316 14.0066 4.06493 13.9726C3.96669 13.9386 3.88149 13.8749 3.82118 13.7902C3.76087 13.7055 3.72845 13.6042 3.72843 13.5002V8.00022H0.728427C0.634614 8.00021 0.542699 7.9738 0.463185 7.92402C0.383671 7.87423 0.319766 7.80308 0.278774 7.7187C0.237782 7.63432 0.221357 7.54011 0.231375 7.44683C0.241393 7.35355 0.277451 7.26498 0.335427 7.19122L5.83543 0.191224C5.89958 0.109515 5.98759 0.0498179 6.08724 0.0204273C6.18688 -0.00896323 6.2932 -0.00658777 6.39143 0.0272238Z" fill="white"></path></svg> 