<?xml version="1.0" encoding="UTF-8"?> <svg xmlns="http://www.w3.org/2000/svg" width="21" height="21" viewBox="0 0 21 21" fill="none"><path fill-rule="evenodd" clip-rule="evenodd" d="M10.7805 0.25H10.6765C9.77752 0.25 9.02852 0.25 8.43452 0.33C7.80652 0.414 7.23952 0.6 6.78452 1.055C6.32852 1.511 6.14252 2.078 6.05852 2.705C6.00152 3.132 5.98452 4.151 5.98052 5.025C3.95852 5.092 2.74352 5.328 1.90052 6.172C0.728516 7.343 0.728516 9.229 0.728516 13C0.728516 16.771 0.728516 18.657 1.90052 19.828C3.07252 20.999 4.95752 21 8.72852 21H12.7285C16.4995 21 18.3855 21 19.5565 19.828C20.7275 18.656 20.7285 16.771 20.7285 13C20.7285 9.229 20.7285 7.343 19.5565 6.172C18.7135 5.328 17.4985 5.092 15.4765 5.026C15.4725 4.151 15.4565 3.132 15.3985 2.706C15.3145 2.078 15.1285 1.511 14.6725 1.056C14.2175 0.6 13.6505 0.414 13.0225 0.33C12.4285 0.25 11.6785 0.25 10.7805 0.25ZM13.9765 5.002C13.9715 4.155 13.9575 3.244 13.9125 2.905C13.8495 2.444 13.7425 2.246 13.6125 2.116C13.4825 1.986 13.2845 1.879 12.8225 1.816C12.3405 1.752 11.6925 1.75 10.7285 1.75C9.76452 1.75 9.11652 1.752 8.63352 1.817C8.17252 1.879 7.97452 1.986 7.84452 2.117C7.71452 2.248 7.60752 2.444 7.54452 2.905C7.49952 3.245 7.48452 4.155 7.48052 5.002C7.87252 5 8.28852 4.99933 8.72852 5H12.7285C13.1698 5 13.5858 5.00067 13.9765 5.002ZM10.7285 8.25C10.9274 8.25 11.1182 8.32902 11.2588 8.46967C11.3995 8.61032 11.4785 8.80109 11.4785 9V9.01C12.5675 9.284 13.4785 10.143 13.4785 11.333C13.4785 11.5319 13.3995 11.7227 13.2588 11.8633C13.1182 12.004 12.9274 12.083 12.7285 12.083C12.5296 12.083 12.3388 12.004 12.1982 11.8633C12.0575 11.7227 11.9785 11.5319 11.9785 11.333C11.9785 10.949 11.5525 10.417 10.7285 10.417C9.90452 10.417 9.47852 10.949 9.47852 11.333C9.47852 11.717 9.90452 12.25 10.7285 12.25C12.1135 12.25 13.4785 13.21 13.4785 14.667C13.4785 15.857 12.5675 16.715 11.4785 16.99V17C11.4785 17.1989 11.3995 17.3897 11.2588 17.5303C11.1182 17.671 10.9274 17.75 10.7285 17.75C10.5296 17.75 10.3388 17.671 10.1982 17.5303C10.0575 17.3897 9.97852 17.1989 9.97852 17V16.99C8.88952 16.716 7.97852 15.857 7.97852 14.667C7.97852 14.4681 8.05753 14.2773 8.19819 14.1367C8.33884 13.996 8.5296 13.917 8.72852 13.917C8.92743 13.917 9.11819 13.996 9.25885 14.1367C9.3995 14.2773 9.47852 14.4681 9.47852 14.667C9.47852 15.051 9.90452 15.583 10.7285 15.583C11.5525 15.583 11.9785 15.051 11.9785 14.667C11.9785 14.283 11.5525 13.75 10.7285 13.75C9.34352 13.75 7.97852 12.79 7.97852 11.333C7.97852 10.143 8.88952 9.284 9.97852 9.01V9C9.97852 8.80109 10.0575 8.61032 10.1982 8.46967C10.3388 8.32902 10.5296 8.25 10.7285 8.25Z" fill="white"></path></svg> 